<mxfile host="app.diagrams.net" modified="2021-12-09T07:13:05.634Z" agent="5.0 (Windows NT 10.0; Win64; x64) AppleWebKit/537.36 (KHTML, like Gecko) Chrome/96.0.4664.93 Safari/537.36" etag="JSxzu3CZ9ChrLlrcM3pD" version="15.9.4" type="github">
  <diagram id="C5RBs43oDa-KdzZeNtuy" name="Page-1">
    <mxGraphModel dx="782" dy="492" grid="1" gridSize="10" guides="1" tooltips="1" connect="1" arrows="1" fold="1" page="1" pageScale="1" pageWidth="827" pageHeight="1169" background="#283618" math="0" shadow="0">
      <root>
        <mxCell id="WIyWlLk6GJQsqaUBKTNV-0" />
        <mxCell id="WIyWlLk6GJQsqaUBKTNV-1" parent="WIyWlLk6GJQsqaUBKTNV-0" />
        <mxCell id="RFZWcq1JmblGPQvrDvfW-0" value="" style="edgeStyle=orthogonalEdgeStyle;curved=0;rounded=1;sketch=0;orthogonalLoop=1;jettySize=auto;html=1;fontColor=#FEFAE0;strokeColor=#DDA15E;fillColor=#BC6C25;" edge="1" parent="WIyWlLk6GJQsqaUBKTNV-1" source="RFZWcq1JmblGPQvrDvfW-1" target="RFZWcq1JmblGPQvrDvfW-4">
          <mxGeometry relative="1" as="geometry">
            <Array as="points">
              <mxPoint x="380" y="410" />
              <mxPoint x="380" y="410" />
            </Array>
          </mxGeometry>
        </mxCell>
        <mxCell id="RFZWcq1JmblGPQvrDvfW-1" value="设备" style="rounded=1;whiteSpace=wrap;html=1;fontSize=12;glass=0;strokeWidth=1;shadow=0;fillColor=#d5e8d4;strokeColor=#82b366;" vertex="1" parent="WIyWlLk6GJQsqaUBKTNV-1">
          <mxGeometry x="300" y="380" width="50" height="40" as="geometry" />
        </mxCell>
        <mxCell id="RFZWcq1JmblGPQvrDvfW-2" value="设备接入" style="text;html=1;strokeColor=none;fillColor=none;align=center;verticalAlign=middle;whiteSpace=wrap;rounded=0;sketch=0;fontColor=#FEFAE0;" vertex="1" parent="WIyWlLk6GJQsqaUBKTNV-1">
          <mxGeometry x="210" y="385" width="60" height="30" as="geometry" />
        </mxCell>
        <mxCell id="RFZWcq1JmblGPQvrDvfW-3" value="" style="edgeStyle=orthogonalEdgeStyle;curved=0;rounded=1;sketch=0;orthogonalLoop=1;jettySize=auto;html=1;fontColor=#FEFAE0;strokeColor=#DDA15E;fillColor=#BC6C25;" edge="1" parent="WIyWlLk6GJQsqaUBKTNV-1" source="RFZWcq1JmblGPQvrDvfW-4" target="RFZWcq1JmblGPQvrDvfW-9">
          <mxGeometry relative="1" as="geometry" />
        </mxCell>
        <mxCell id="RFZWcq1JmblGPQvrDvfW-4" value="EMQX" style="rounded=1;whiteSpace=wrap;html=1;fontSize=12;glass=0;strokeWidth=1;shadow=0;fillColor=#a20025;strokeColor=#6F0000;fontColor=#ffffff;" vertex="1" parent="WIyWlLk6GJQsqaUBKTNV-1">
          <mxGeometry x="400" y="380" width="50" height="40" as="geometry" />
        </mxCell>
        <mxCell id="RFZWcq1JmblGPQvrDvfW-5" value="" style="edgeStyle=orthogonalEdgeStyle;curved=0;rounded=1;sketch=0;orthogonalLoop=1;jettySize=auto;html=1;fontColor=#FEFAE0;strokeColor=#DDA15E;fillColor=#BC6C25;dashed=1;" edge="1" parent="WIyWlLk6GJQsqaUBKTNV-1">
          <mxGeometry relative="1" as="geometry">
            <mxPoint x="350" y="390" as="sourcePoint" />
            <mxPoint x="400" y="390" as="targetPoint" />
            <Array as="points">
              <mxPoint x="380" y="390" />
              <mxPoint x="380" y="390" />
            </Array>
          </mxGeometry>
        </mxCell>
        <mxCell id="RFZWcq1JmblGPQvrDvfW-6" value="接入账号密码" style="text;html=1;strokeColor=none;fillColor=none;align=center;verticalAlign=middle;whiteSpace=wrap;rounded=0;sketch=0;fontColor=#FEFAE0;" vertex="1" parent="WIyWlLk6GJQsqaUBKTNV-1">
          <mxGeometry x="350" y="355" width="60" height="30" as="geometry" />
        </mxCell>
        <mxCell id="RFZWcq1JmblGPQvrDvfW-7" value="原始数据（根云4.0 JSON）" style="text;html=1;strokeColor=none;fillColor=none;align=center;verticalAlign=middle;whiteSpace=wrap;rounded=0;sketch=0;fontColor=#FEFAE0;" vertex="1" parent="WIyWlLk6GJQsqaUBKTNV-1">
          <mxGeometry x="340" y="430" width="60" height="30" as="geometry" />
        </mxCell>
        <mxCell id="RFZWcq1JmblGPQvrDvfW-8" style="edgeStyle=orthogonalEdgeStyle;curved=0;rounded=1;sketch=0;orthogonalLoop=1;jettySize=auto;html=1;entryX=0;entryY=0.25;entryDx=0;entryDy=0;fontColor=#FEFAE0;strokeColor=#DDA15E;fillColor=#BC6C25;" edge="1" parent="WIyWlLk6GJQsqaUBKTNV-1" source="RFZWcq1JmblGPQvrDvfW-9" target="RFZWcq1JmblGPQvrDvfW-15">
          <mxGeometry relative="1" as="geometry">
            <Array as="points">
              <mxPoint x="515" y="340" />
              <mxPoint x="280" y="340" />
              <mxPoint x="280" y="290" />
            </Array>
          </mxGeometry>
        </mxCell>
        <mxCell id="RFZWcq1JmblGPQvrDvfW-9" value="Iothub-access" style="rounded=1;whiteSpace=wrap;html=1;fontSize=12;glass=0;strokeWidth=1;shadow=0;fillColor=#a20025;strokeColor=#6F0000;fontColor=#ffffff;" vertex="1" parent="WIyWlLk6GJQsqaUBKTNV-1">
          <mxGeometry x="490" y="380" width="50" height="40" as="geometry" />
        </mxCell>
        <mxCell id="RFZWcq1JmblGPQvrDvfW-10" value="" style="edgeStyle=orthogonalEdgeStyle;curved=0;rounded=1;sketch=0;orthogonalLoop=1;jettySize=auto;html=1;fontColor=#FEFAE0;strokeColor=#DDA15E;fillColor=#BC6C25;" edge="1" parent="WIyWlLk6GJQsqaUBKTNV-1" source="RFZWcq1JmblGPQvrDvfW-11" target="RFZWcq1JmblGPQvrDvfW-13">
          <mxGeometry relative="1" as="geometry" />
        </mxCell>
        <mxCell id="RFZWcq1JmblGPQvrDvfW-11" value="旧有系统kafka" style="rounded=1;whiteSpace=wrap;html=1;fontSize=12;glass=0;strokeWidth=1;shadow=0;fillColor=#a20025;strokeColor=#6F0000;fontColor=#ffffff;" vertex="1" parent="WIyWlLk6GJQsqaUBKTNV-1">
          <mxGeometry x="750" y="380" width="50" height="40" as="geometry" />
        </mxCell>
        <mxCell id="RFZWcq1JmblGPQvrDvfW-12" style="edgeStyle=orthogonalEdgeStyle;curved=0;rounded=1;sketch=0;orthogonalLoop=1;jettySize=auto;html=1;entryX=0;entryY=0.5;entryDx=0;entryDy=0;fontColor=#FEFAE0;strokeColor=#DDA15E;fillColor=#BC6C25;" edge="1" parent="WIyWlLk6GJQsqaUBKTNV-1" source="RFZWcq1JmblGPQvrDvfW-13" target="RFZWcq1JmblGPQvrDvfW-15">
          <mxGeometry relative="1" as="geometry">
            <Array as="points">
              <mxPoint x="685" y="340" />
              <mxPoint x="280" y="340" />
              <mxPoint x="280" y="300" />
            </Array>
          </mxGeometry>
        </mxCell>
        <mxCell id="RFZWcq1JmblGPQvrDvfW-13" value="数据转发服务" style="rounded=1;whiteSpace=wrap;html=1;fontSize=12;glass=0;strokeWidth=1;shadow=0;fillColor=#a20025;strokeColor=#6F0000;fontColor=#ffffff;" vertex="1" parent="WIyWlLk6GJQsqaUBKTNV-1">
          <mxGeometry x="660" y="380" width="50" height="40" as="geometry" />
        </mxCell>
        <mxCell id="RFZWcq1JmblGPQvrDvfW-14" value="" style="edgeStyle=orthogonalEdgeStyle;curved=0;rounded=1;sketch=0;orthogonalLoop=1;jettySize=auto;html=1;fontColor=#FEFAE0;strokeColor=#DDA15E;fillColor=#BC6C25;" edge="1" parent="WIyWlLk6GJQsqaUBKTNV-1" source="RFZWcq1JmblGPQvrDvfW-15" target="RFZWcq1JmblGPQvrDvfW-25">
          <mxGeometry relative="1" as="geometry">
            <Array as="points">
              <mxPoint x="325" y="230" />
              <mxPoint x="325" y="230" />
            </Array>
          </mxGeometry>
        </mxCell>
        <mxCell id="RFZWcq1JmblGPQvrDvfW-15" value="input" style="rounded=1;whiteSpace=wrap;html=1;fontSize=12;glass=0;strokeWidth=1;shadow=0;fillColor=#a20025;strokeColor=#6F0000;fontColor=#ffffff;" vertex="1" parent="WIyWlLk6GJQsqaUBKTNV-1">
          <mxGeometry x="300" y="280" width="50" height="40" as="geometry" />
        </mxCell>
        <mxCell id="RFZWcq1JmblGPQvrDvfW-16" value="" style="edgeStyle=orthogonalEdgeStyle;curved=0;rounded=1;sketch=0;orthogonalLoop=1;jettySize=auto;html=1;fontColor=#FEFAE0;strokeColor=#DDA15E;fillColor=#BC6C25;" edge="1" parent="WIyWlLk6GJQsqaUBKTNV-1" source="RFZWcq1JmblGPQvrDvfW-17" target="RFZWcq1JmblGPQvrDvfW-25">
          <mxGeometry relative="1" as="geometry">
            <Array as="points">
              <mxPoint x="405" y="230" />
              <mxPoint x="405" y="230" />
            </Array>
          </mxGeometry>
        </mxCell>
        <mxCell id="RFZWcq1JmblGPQvrDvfW-17" value="meta" style="rounded=1;whiteSpace=wrap;html=1;fontSize=12;glass=0;strokeWidth=1;shadow=0;fillColor=#a20025;strokeColor=#6F0000;fontColor=#ffffff;" vertex="1" parent="WIyWlLk6GJQsqaUBKTNV-1">
          <mxGeometry x="380" y="280" width="50" height="40" as="geometry" />
        </mxCell>
        <mxCell id="RFZWcq1JmblGPQvrDvfW-18" value="event" style="rounded=1;whiteSpace=wrap;html=1;fontSize=12;glass=0;strokeWidth=1;shadow=0;fillColor=#a20025;strokeColor=#6F0000;fontColor=#ffffff;" vertex="1" parent="WIyWlLk6GJQsqaUBKTNV-1">
          <mxGeometry x="460" y="280" width="50" height="40" as="geometry" />
        </mxCell>
        <mxCell id="RFZWcq1JmblGPQvrDvfW-19" value="logical" style="rounded=1;whiteSpace=wrap;html=1;fontSize=12;glass=0;strokeWidth=1;shadow=0;fillColor=#a20025;strokeColor=#6F0000;fontColor=#ffffff;" vertex="1" parent="WIyWlLk6GJQsqaUBKTNV-1">
          <mxGeometry x="553" y="280" width="50" height="40" as="geometry" />
        </mxCell>
        <mxCell id="RFZWcq1JmblGPQvrDvfW-20" style="edgeStyle=orthogonalEdgeStyle;rounded=1;sketch=0;orthogonalLoop=1;jettySize=auto;html=1;entryX=0.5;entryY=1;entryDx=0;entryDy=0;fontColor=#FEFAE0;strokeColor=#DDA15E;fillColor=#BC6C25;" edge="1" parent="WIyWlLk6GJQsqaUBKTNV-1" source="RFZWcq1JmblGPQvrDvfW-21" target="RFZWcq1JmblGPQvrDvfW-26">
          <mxGeometry relative="1" as="geometry">
            <Array as="points">
              <mxPoint x="670" y="250" />
              <mxPoint x="860" y="250" />
            </Array>
          </mxGeometry>
        </mxCell>
        <mxCell id="RFZWcq1JmblGPQvrDvfW-21" value="logical Persist" style="rounded=1;whiteSpace=wrap;html=1;fontSize=12;glass=0;strokeWidth=1;shadow=0;fillColor=#a20025;strokeColor=#6F0000;fontColor=#ffffff;" vertex="1" parent="WIyWlLk6GJQsqaUBKTNV-1">
          <mxGeometry x="633" y="280" width="50" height="40" as="geometry" />
        </mxCell>
        <mxCell id="RFZWcq1JmblGPQvrDvfW-22" value="actionable" style="rounded=1;whiteSpace=wrap;html=1;fontSize=12;glass=0;strokeWidth=1;shadow=0;fillColor=#a20025;strokeColor=#6F0000;fontColor=#ffffff;" vertex="1" parent="WIyWlLk6GJQsqaUBKTNV-1">
          <mxGeometry x="700" y="280" width="70" height="40" as="geometry" />
        </mxCell>
        <mxCell id="RFZWcq1JmblGPQvrDvfW-23" style="edgeStyle=orthogonalEdgeStyle;sketch=0;orthogonalLoop=1;jettySize=auto;html=1;entryX=0;entryY=0.5;entryDx=0;entryDy=0;fontColor=#FEFAE0;strokeColor=#DDA15E;fillColor=#BC6C25;rounded=1;" edge="1" parent="WIyWlLk6GJQsqaUBKTNV-1" source="RFZWcq1JmblGPQvrDvfW-25" target="RFZWcq1JmblGPQvrDvfW-36">
          <mxGeometry relative="1" as="geometry">
            <Array as="points">
              <mxPoint x="780" y="200" />
              <mxPoint x="780" y="300" />
            </Array>
          </mxGeometry>
        </mxCell>
        <mxCell id="RFZWcq1JmblGPQvrDvfW-24" style="edgeStyle=orthogonalEdgeStyle;rounded=1;sketch=0;orthogonalLoop=1;jettySize=auto;html=1;entryX=0.5;entryY=0;entryDx=0;entryDy=0;fontColor=#FEFAE0;strokeColor=#DDA15E;fillColor=#BC6C25;" edge="1" parent="WIyWlLk6GJQsqaUBKTNV-1" source="RFZWcq1JmblGPQvrDvfW-25" target="RFZWcq1JmblGPQvrDvfW-37">
          <mxGeometry relative="1" as="geometry">
            <Array as="points">
              <mxPoint x="535" y="230" />
              <mxPoint x="890" y="230" />
            </Array>
          </mxGeometry>
        </mxCell>
        <mxCell id="RFZWcq1JmblGPQvrDvfW-25" value="ECA Job (flink 1.9.3)" style="rounded=1;whiteSpace=wrap;html=1;fontSize=12;glass=0;strokeWidth=1;shadow=0;fillColor=#a0522d;strokeColor=#6D1F00;fontColor=#ffffff;" vertex="1" parent="WIyWlLk6GJQsqaUBKTNV-1">
          <mxGeometry x="300" y="180" width="470" height="40" as="geometry" />
        </mxCell>
        <mxCell id="RFZWcq1JmblGPQvrDvfW-26" value="Persistent 服务（flume）" style="rounded=1;whiteSpace=wrap;html=1;fontSize=12;glass=0;strokeWidth=1;shadow=0;fillColor=#a0522d;strokeColor=#6D1F00;fontColor=#ffffff;" vertex="1" parent="WIyWlLk6GJQsqaUBKTNV-1">
          <mxGeometry x="800" y="180" width="120" height="40" as="geometry" />
        </mxCell>
        <mxCell id="RFZWcq1JmblGPQvrDvfW-27" value="设备与模型更新信息" style="text;html=1;strokeColor=none;fillColor=none;align=center;verticalAlign=middle;whiteSpace=wrap;rounded=0;sketch=0;fontColor=#FEFAE0;" vertex="1" parent="WIyWlLk6GJQsqaUBKTNV-1">
          <mxGeometry x="330" y="240" width="60" height="30" as="geometry" />
        </mxCell>
        <mxCell id="RFZWcq1JmblGPQvrDvfW-28" value="2. 只包含连接变量的原始数据" style="text;html=1;strokeColor=none;fillColor=none;align=center;verticalAlign=middle;whiteSpace=wrap;rounded=0;sketch=0;fontColor=#FEFAE0;" vertex="1" parent="WIyWlLk6GJQsqaUBKTNV-1">
          <mxGeometry x="410" y="240" width="60" height="30" as="geometry" />
        </mxCell>
        <mxCell id="RFZWcq1JmblGPQvrDvfW-29" value="" style="edgeStyle=orthogonalEdgeStyle;curved=0;rounded=1;sketch=0;orthogonalLoop=1;jettySize=auto;html=1;fontColor=#FEFAE0;strokeColor=#DDA15E;fillColor=#BC6C25;entryX=0.5;entryY=0;entryDx=0;entryDy=0;" edge="1" parent="WIyWlLk6GJQsqaUBKTNV-1" target="RFZWcq1JmblGPQvrDvfW-18">
          <mxGeometry relative="1" as="geometry">
            <mxPoint x="485" y="220" as="sourcePoint" />
            <mxPoint x="530" y="250" as="targetPoint" />
            <Array as="points">
              <mxPoint x="485" y="220" />
            </Array>
          </mxGeometry>
        </mxCell>
        <mxCell id="RFZWcq1JmblGPQvrDvfW-30" value="3.设备模型复合物模&lt;br&gt;型计算结果" style="text;html=1;strokeColor=none;fillColor=none;align=center;verticalAlign=middle;whiteSpace=wrap;rounded=0;sketch=0;fontColor=#FEFAE0;" vertex="1" parent="WIyWlLk6GJQsqaUBKTNV-1">
          <mxGeometry x="490" y="240" width="70" height="30" as="geometry" />
        </mxCell>
        <mxCell id="RFZWcq1JmblGPQvrDvfW-31" value="" style="edgeStyle=orthogonalEdgeStyle;curved=0;rounded=1;sketch=0;orthogonalLoop=1;jettySize=auto;html=1;fontColor=#FEFAE0;strokeColor=#DDA15E;fillColor=#BC6C25;" edge="1" parent="WIyWlLk6GJQsqaUBKTNV-1">
          <mxGeometry relative="1" as="geometry">
            <mxPoint x="577.71" y="280" as="sourcePoint" />
            <mxPoint x="577.71" y="220" as="targetPoint" />
            <Array as="points">
              <mxPoint x="577.71" y="230" />
              <mxPoint x="577.71" y="230" />
            </Array>
          </mxGeometry>
        </mxCell>
        <mxCell id="RFZWcq1JmblGPQvrDvfW-32" value="" style="edgeStyle=orthogonalEdgeStyle;curved=0;rounded=1;sketch=0;orthogonalLoop=1;jettySize=auto;html=1;fontColor=#FEFAE0;strokeColor=#DDA15E;fillColor=#BC6C25;entryX=0.5;entryY=0;entryDx=0;entryDy=0;" edge="1" parent="WIyWlLk6GJQsqaUBKTNV-1">
          <mxGeometry relative="1" as="geometry">
            <mxPoint x="568" y="220" as="sourcePoint" />
            <mxPoint x="568" y="280" as="targetPoint" />
            <Array as="points">
              <mxPoint x="568" y="220" />
            </Array>
          </mxGeometry>
        </mxCell>
        <mxCell id="RFZWcq1JmblGPQvrDvfW-33" value="设备模型复合物模型&lt;br&gt;待入库数据" style="text;html=1;strokeColor=none;fillColor=none;align=center;verticalAlign=middle;whiteSpace=wrap;rounded=0;sketch=0;fontColor=#FEFAE0;" vertex="1" parent="WIyWlLk6GJQsqaUBKTNV-1">
          <mxGeometry x="580" y="240" width="70" height="30" as="geometry" />
        </mxCell>
        <mxCell id="RFZWcq1JmblGPQvrDvfW-34" value="" style="edgeStyle=orthogonalEdgeStyle;curved=0;rounded=1;sketch=0;orthogonalLoop=1;jettySize=auto;html=1;fontColor=#FEFAE0;strokeColor=#DDA15E;fillColor=#BC6C25;entryX=0.5;entryY=0;entryDx=0;entryDy=0;" edge="1" parent="WIyWlLk6GJQsqaUBKTNV-1">
          <mxGeometry relative="1" as="geometry">
            <mxPoint x="658" y="219" as="sourcePoint" />
            <mxPoint x="658" y="279" as="targetPoint" />
            <Array as="points">
              <mxPoint x="658" y="219" />
            </Array>
          </mxGeometry>
        </mxCell>
        <mxCell id="RFZWcq1JmblGPQvrDvfW-35" value="" style="edgeStyle=orthogonalEdgeStyle;curved=0;rounded=1;sketch=0;orthogonalLoop=1;jettySize=auto;html=1;fontColor=#FEFAE0;strokeColor=#DDA15E;fillColor=#BC6C25;entryX=0.5;entryY=0;entryDx=0;entryDy=0;" edge="1" parent="WIyWlLk6GJQsqaUBKTNV-1">
          <mxGeometry relative="1" as="geometry">
            <mxPoint x="734.71" y="220" as="sourcePoint" />
            <mxPoint x="734.71" y="280" as="targetPoint" />
            <Array as="points">
              <mxPoint x="734.71" y="220" />
            </Array>
          </mxGeometry>
        </mxCell>
        <mxCell id="RFZWcq1JmblGPQvrDvfW-36" value="alarm" style="rounded=1;whiteSpace=wrap;html=1;fontSize=12;glass=0;strokeWidth=1;shadow=0;fillColor=#a20025;strokeColor=#6F0000;fontColor=#ffffff;" vertex="1" parent="WIyWlLk6GJQsqaUBKTNV-1">
          <mxGeometry x="790" y="280" width="60" height="40" as="geometry" />
        </mxCell>
        <mxCell id="RFZWcq1JmblGPQvrDvfW-37" value="error" style="rounded=1;whiteSpace=wrap;html=1;fontSize=12;glass=0;strokeWidth=1;shadow=0;fillColor=#a20025;strokeColor=#6F0000;fontColor=#ffffff;" vertex="1" parent="WIyWlLk6GJQsqaUBKTNV-1">
          <mxGeometry x="860" y="280" width="60" height="40" as="geometry" />
        </mxCell>
        <mxCell id="RFZWcq1JmblGPQvrDvfW-38" value="MongoDB&lt;br&gt;实时数据部分字段" style="rounded=1;whiteSpace=wrap;html=1;fontSize=12;glass=0;strokeWidth=1;shadow=0;fillColor=#a20025;strokeColor=#6F0000;fontColor=#ffffff;" vertex="1" parent="WIyWlLk6GJQsqaUBKTNV-1">
          <mxGeometry x="300" y="80" width="110" height="40" as="geometry" />
        </mxCell>
        <mxCell id="RFZWcq1JmblGPQvrDvfW-39" value="" style="edgeStyle=orthogonalEdgeStyle;rounded=1;sketch=0;orthogonalLoop=1;jettySize=auto;html=1;fontColor=#FEFAE0;strokeColor=#DDA15E;fillColor=#BC6C25;" edge="1" parent="WIyWlLk6GJQsqaUBKTNV-1" source="RFZWcq1JmblGPQvrDvfW-40" target="RFZWcq1JmblGPQvrDvfW-43">
          <mxGeometry relative="1" as="geometry" />
        </mxCell>
        <mxCell id="RFZWcq1JmblGPQvrDvfW-40" value="Redis&lt;br&gt;实时数据" style="rounded=1;whiteSpace=wrap;html=1;fontSize=12;glass=0;strokeWidth=1;shadow=0;fillColor=#a20025;strokeColor=#6F0000;fontColor=#ffffff;" vertex="1" parent="WIyWlLk6GJQsqaUBKTNV-1">
          <mxGeometry x="430" y="80" width="70" height="40" as="geometry" />
        </mxCell>
        <mxCell id="RFZWcq1JmblGPQvrDvfW-41" value="" style="edgeStyle=orthogonalEdgeStyle;rounded=1;sketch=0;orthogonalLoop=1;jettySize=auto;html=1;fontColor=#FEFAE0;strokeColor=#DDA15E;fillColor=#BC6C25;" edge="1" parent="WIyWlLk6GJQsqaUBKTNV-1" source="RFZWcq1JmblGPQvrDvfW-42" target="RFZWcq1JmblGPQvrDvfW-43">
          <mxGeometry relative="1" as="geometry" />
        </mxCell>
        <mxCell id="RFZWcq1JmblGPQvrDvfW-42" value="MongoDB&lt;br&gt;告警数据" style="rounded=1;whiteSpace=wrap;html=1;fontSize=12;glass=0;strokeWidth=1;shadow=0;fillColor=#a20025;strokeColor=#6F0000;fontColor=#ffffff;" vertex="1" parent="WIyWlLk6GJQsqaUBKTNV-1">
          <mxGeometry x="520" y="80" width="70" height="40" as="geometry" />
        </mxCell>
        <mxCell id="RFZWcq1JmblGPQvrDvfW-43" value="iothub-historian" style="rounded=1;whiteSpace=wrap;html=1;fontSize=12;glass=0;strokeWidth=1;shadow=0;fillColor=#a0522d;strokeColor=#6D1F00;fontColor=#ffffff;" vertex="1" parent="WIyWlLk6GJQsqaUBKTNV-1">
          <mxGeometry x="430" y="10" width="160" height="40" as="geometry" />
        </mxCell>
        <mxCell id="RFZWcq1JmblGPQvrDvfW-44" style="edgeStyle=orthogonalEdgeStyle;rounded=1;sketch=0;orthogonalLoop=1;jettySize=auto;html=1;entryX=0.5;entryY=1;entryDx=0;entryDy=0;fontColor=#FEFAE0;strokeColor=#DDA15E;fillColor=#BC6C25;" edge="1" parent="WIyWlLk6GJQsqaUBKTNV-1" source="RFZWcq1JmblGPQvrDvfW-45" target="RFZWcq1JmblGPQvrDvfW-43">
          <mxGeometry relative="1" as="geometry">
            <Array as="points">
              <mxPoint x="658" y="60" />
              <mxPoint x="510" y="60" />
            </Array>
          </mxGeometry>
        </mxCell>
        <mxCell id="RFZWcq1JmblGPQvrDvfW-45" value="InfluxDb&lt;br&gt;设备温数据" style="rounded=1;whiteSpace=wrap;html=1;fontSize=12;glass=0;strokeWidth=1;shadow=0;fillColor=#a20025;strokeColor=#6F0000;fontColor=#ffffff;" vertex="1" parent="WIyWlLk6GJQsqaUBKTNV-1">
          <mxGeometry x="623" y="80" width="70" height="40" as="geometry" />
        </mxCell>
      </root>
    </mxGraphModel>
  </diagram>
</mxfile>
